<?xml version="1.0" encoding="utf-8"?>
<!-- Generator: Adobe Illustrator 22.0.1, SVG Export Plug-In . SVG Version: 6.00 Build 0)  -->
<svg version="1.1" id="Layer_1" xmlns="http://www.w3.org/2000/svg" xmlns:xlink="http://www.w3.org/1999/xlink" x="0px" y="0px"
	 width="98px" height="30px" viewBox="0 0 98 30" style="enable-background:new 0 0 98 30;" xml:space="preserve">
<style type="text/css">
	.st0{fill-rule:evenodd;clip-rule:evenodd;fill:#101010;}
	.st1{fill:#101010;}
	.st2{fill:#F89F1E;}
</style>
<g>
	<polygon class="st0" points="98,5.9 98,0 77.9,0 77.9,4.8 77.9,5.9 77.9,12.1 77.9,17.9 77.9,24.1 77.9,25.2 77.9,30 98,30 
		98,24.1 83.7,24.1 83.7,17.9 93.5,17.9 93.5,12.1 83.7,12.1 83.7,5.9 	"/>
	<path class="st1" d="M20.4,22.2c-1.5,1.2-3.5,1.9-5.6,1.9c-5,0-9-4.1-9-9.1s4.1-9.1,9-9.1c2.1,0,4,0.7,5.6,1.9
		c0.7-1.9,1.7-3.6,3-5.1C21,1,18,0,14.9,0C6.7,0,0,6.7,0,15c0,8.3,6.7,15,14.9,15c3.2,0,6.1-1,8.5-2.7
		C22.2,25.8,21.2,24.1,20.4,22.2z"/>
	<path class="st1" d="M68.3,17.4c3.2-1.2,5.4-4.2,5.4-7.8V8.3C73.7,3.7,70,0,65.4,0H49.8c1.9,1.6,3.5,3.6,4.6,5.9h11.1
		c1.3,0,2.4,1.1,2.4,2.5v1.2c0,1.4-1.1,2.5-2.4,2.5h-9.1c0.1,0.9,0.2,1.9,0.2,2.8c0,1-0.1,2.1-0.2,3.1H62L68.4,30H75L68.3,17.4z"/>
	<g>
		<path class="st2" d="M48.8,16.8c-0.9,5.3-5.5,9.3-11,9.3c-5.5,0-10.1-4-11-9.3h-4C23.8,24.2,30.1,30,37.8,30
			c7.7,0,14-5.8,14.9-13.2H48.8z"/>
		<path class="st2" d="M26.8,13.2c0.9-5.3,5.5-9.3,11-9.3c5.5,0,10.1,4,11,9.3h4C51.9,5.8,45.5,0,37.8,0c-7.7,0-14,5.8-14.9,13.2
			H26.8z"/>
	</g>
	<path class="st0" d="M36.5,5.7c1.7,7.4-5.4,9.1-3.7,14.9c1.3,4.6,8,4.5,9.8,1.1c0.7-1.4,1.3-4.1-1.4-7.6c0.2,1.8-0.6,4-2.2,3
		C37.1,15.9,42.2,9.8,36.5,5.7z"/>
</g>
</svg>
